<svg id="Capa_1" enable-background="new 0 0 512 512" height="512" viewBox="0 0 512 512" width="512" xmlns="http://www.w3.org/2000/svg"><g><g><path d="m221.001 89.022-29.577-58.754c-9.398-18.67-28.273-30.268-49.259-30.268-24.972 0-46.874 16.778-53.261 40.801l-32.818 123.439z" fill="#fdc661"/><path d="m290.999 89.022 29.576-58.754c9.399-18.67 28.274-30.268 49.259-30.268 24.972 0 46.874 16.778 53.261 40.801l32.818 123.439z" fill="#ffa73c"/><g><g><path d="m366.5 512h.077" fill="none"/><path d="m455.914 164.24c6.848 9.807 50.059 96.581 54.842 178.681 0 0-8.06 28.918-28.929 61.893-19.093 30.167-55.16 75.186-115.327 107.186h-111.744l-9.423-224 9.423-201.589c64.654 0 152.524 8.188 201.158 77.829z" fill="#fdd278"/></g><g><path d="m145.5 512h-.077" fill="none"/><path d="m56.086 164.24c-6.848 9.807-50.059 96.581-54.842 178.681 0 0 8.06 28.918 28.929 61.893 19.093 30.167 55.16 75.186 115.327 107.186h109.256v-425.589c-64.653 0-150.036 8.188-198.67 77.829z" fill="#ffdf8e"/></g></g><path d="m169.14 247.333h30v30h-30z" fill="#8d562f"/><path d="m312.86 247.333h30v30h-30z" fill="#744727"/></g><g><g><path d="m336.342 347.991c-18.381-26.92-48.88-42.991-81.586-42.991l-8.656 87.806 8.656 75.107c10.84 11.625 26.099 18.421 42.542 18.42.099 0 .201 0 .301-.001 15.141-.077 29.592-5.789 40.694-16.085 11.101-10.296 17.884-24.278 19.099-39.37l.167-15.601.001-.105c-.001-23.959-7.14-46.562-21.218-67.18z" fill="#efe2dd"/><path d="m173.171 347.991c-14.079 20.619-21.217 43.222-21.217 67.181l.128 14.835.039.872c1.215 15.092 7.998 29.074 19.099 39.37 11.102 10.296 25.554 16.008 40.694 16.085 16.574.065 31.936-6.723 42.843-18.419v-162.915c-32.706 0-63.205 16.071-81.586 42.991z" fill="#f7f0eb"/></g><g><path d="m266.478 330.667h-11.722l-12.714 34.398 12.714 56.268 31.486-19.314c11.57-6.942 18.65-19.446 18.65-32.939 0-21.215-17.199-38.413-38.414-38.413z" fill="#412816"/><path d="m243.034 330.667c-21.215 0-38.413 17.198-38.413 38.413 0 13.493 7.08 25.997 18.65 32.939l31.486 19.314v-90.667h-11.723z" fill="#57351d"/></g></g></g></svg>